<svg xmlns="http://www.w3.org/2000/svg" width="52.133" height="52.133" viewBox="0 0 52.133 52.133">
  <g id="agreement" transform="translate(0)">
    <path id="Path_7" data-name="Path 7" d="M219.363,115.363a1.683,1.683,0,0,1,1.682,1.682h1.682A3.359,3.359,0,0,0,220.2,113.8V112h-1.682v1.8a3.356,3.356,0,0,0,.841,6.607,1.682,1.682,0,1,1-1.682,1.682H216a3.359,3.359,0,0,0,2.523,3.244v1.8H220.2v-1.8a3.356,3.356,0,0,0-.841-6.607,1.682,1.682,0,1,1,0-3.363Zm0,0" transform="translate(-193.297 -100.228)" fill="#fff"/>
    <path id="Path_8" data-name="Path 8" d="M52.133,21.862V15.135H47.088V0H13.079L5.045,8.927v6.209H0v6.727H5.045v2.851l-3.216-1.17H0v18.5H7.344l.441-1.411,3.554,2.132,2.356.614a2.607,2.607,0,0,0,2.291,3.7,2.589,2.589,0,0,0,3.486,2.371,2.6,2.6,0,0,0,4.044,1.322l.622.622a2.5,2.5,0,0,0,1.784.739h.145a2.518,2.518,0,0,0,2.362-1.665A2.5,2.5,0,0,0,32.7,49.414a2.469,2.469,0,0,0,3.363-1.682,2.487,2.487,0,0,0,3.457-2.326v-.28a2.531,2.531,0,0,0-.505-1.513l-.278-.371,3.122-2.5.407,1.3h9.867v-18.5H50.451l-3.363.952V21.862ZM13.453,2.1V8.409H7.773ZM6.726,10.09h8.409V1.682H45.406V15.135H40.361V11.882L30.436,18.5l9.925,6.617V21.862h5.045v3.11l-7.786,2.2.728,2.33-10.484.7a5.859,5.859,0,0,0-2.241.608l-1.8.9a5.879,5.879,0,0,0-2.568-.6H15.333l-3.955-1.978.594-1.9L6.726,25.325V21.862h5.045v3.253L21.7,18.5l-9.925-6.617v3.253H6.726ZM1.681,20.181V16.817H13.453V15.025L18.664,18.5l-5.211,3.473V20.181ZM6.109,40.361H1.681V25.28l8.208,2.984Zm5.989.9L8.3,38.98l2.569-8.22,4.066,2.033h6.32a4.2,4.2,0,0,1,2.228.639l4.573,2.858a1.128,1.128,0,0,1,.532.962v.294a1.135,1.135,0,0,1-1.718.973l-3.158-1.894a3.338,3.338,0,0,0-4,.493l-4.837,4.837Zm14.81,8.353a.842.842,0,0,1-.841.841h-.145a.847.847,0,0,1-.595-.246l-.7-.7a.837.837,0,0,1-.246-.6V48.77a.842.842,0,0,1,.841-.841h.145a.847.847,0,0,1,.595.246l.7.7a.837.837,0,0,1,.246.6Zm4.2-.841a.841.841,0,0,1-1.513.5l-1.682-2.243a.844.844,0,0,1-.168-.5v-.28a.841.841,0,0,1,1.513-.5l1.682,2.243a.844.844,0,0,1,.168.5Zm3.363-1.682a.841.841,0,0,1-1.513.5L31.28,45.35a.844.844,0,0,1-.168-.5v-.28a.841.841,0,0,1,1.513-.5L34.306,46.3a.844.844,0,0,1,.168.5Zm3.363-1.682a.841.841,0,0,1-1.513.5l-1.682-2.243a.844.844,0,0,1-.168-.5v-.28a.841.841,0,0,1,1.513-.5l1.682,2.243a.844.844,0,0,1,.168.5Zm-.111-3.51-.394-.526a2.515,2.515,0,0,0-4.447.869,2.469,2.469,0,0,0-3.363,1.682,2.487,2.487,0,0,0-3.457,2.326v.109a2.515,2.515,0,0,0-.7-.109h-.145A2.526,2.526,0,0,0,22.7,48.77v.144a2.493,2.493,0,0,0,.031.318l-.1.1a.943.943,0,0,1-1.609-.667A.936.936,0,0,1,21.3,48l3.682-3.682L23.79,43.13l-4.523,4.523a.943.943,0,0,1-1.609-.667.936.936,0,0,1,.276-.667L22.456,41.8l-1.189-1.189L16.744,45.13a.943.943,0,0,1-1.609-.667.936.936,0,0,1,.276-.667L20.9,38.305a1.622,1.622,0,0,1,1.945-.24L26,39.96a2.817,2.817,0,0,0,4.266-2.415v-.294a2.8,2.8,0,0,0-1.324-2.388l-3.406-2.128.834-.417a4.171,4.171,0,0,1,1.6-.435l10.888-.725,2.457,7.864ZM50.451,25.259v15.1H43.5L39.738,28.32ZM38.679,20.181v1.792L33.468,18.5l5.211-3.473v1.792H50.451v3.363Zm0,0" fill="#fff"/>
    <path id="Path_9" data-name="Path 9" d="M160,32h26.907v1.682H160Zm0,0" transform="translate(-143.183 -28.637)" fill="#fff"/>
    <path id="Path_10" data-name="Path 10" d="M160,64h26.907v1.682H160Zm0,0" transform="translate(-143.183 -57.273)" fill="#fff"/>
  </g>
</svg>
