<svg id="communication" xmlns="http://www.w3.org/2000/svg" width="48.699" height="49.733" viewBox="0 0 48.699 49.733">
  <path id="Path_11" data-name="Path 11" d="M49.342,57a2.407,2.407,0,1,0,2.342,2.406A2.378,2.378,0,0,0,49.342,57Zm0,3.209a.8.8,0,1,1,.781-.8A.792.792,0,0,1,49.342,60.209Z" transform="translate(-11.089 -12.08)" fill="#fff"/>
  <path id="Path_12" data-name="Path 12" d="M49.185,37.512a13.5,13.5,0,0,0-9.152-4.385v-5a2.415,2.415,0,0,0,0-4.518V16.863a1.888,1.888,0,0,0,.988-1.129l1.137-3.5h4.9A2.378,2.378,0,0,0,49.4,9.824V3.406A2.378,2.378,0,0,0,47.059,1H31.446A2.378,2.378,0,0,0,29.1,3.406V5.813h-.781a2.378,2.378,0,0,0-2.342,2.406v7.26c-.258-.021-.517-.041-.781-.041s-.522.02-.781.041V10.626a2.378,2.378,0,0,0-2.342-2.406H21.3V5.011A2.378,2.378,0,0,0,18.955,2.6h-4.7a3.8,3.8,0,0,0-6.2,0h-4.7A2.378,2.378,0,0,0,1,5.011v8.022a2.378,2.378,0,0,0,2.342,2.406h7.026v8.169a2.415,2.415,0,0,0,0,4.518V39.5A6.309,6.309,0,0,0,4.65,42.865a4.019,4.019,0,0,0,1.034,7.868H16.613a3.939,3.939,0,0,0,3.824-3.209h1.64a2.378,2.378,0,0,0,2.342-2.406V36.254c.258.021.517.041.781.041s.522-.02.781-.041V46.723a2.378,2.378,0,0,0,2.342,2.406h7.026v-1.6H28.323a.792.792,0,0,1-.781-.8V36a10.357,10.357,0,0,0,7.767-9.335h1.745a2.373,2.373,0,0,0,1.418,1.457v5a13.5,13.5,0,0,0-9.152,4.385l-.514.553,3.161,3.4.564-.608a9.03,9.03,0,0,1,13.443,0l.564.608,3.161-3.4ZM39.253,26.669a.8.8,0,1,1,.781-.8A.792.792,0,0,1,39.253,26.669ZM30.665,3.406a.792.792,0,0,1,.781-.8H47.059a.792.792,0,0,1,.781.8V9.824a.792.792,0,0,1-.781.8H41.032l-1.493,4.6a.312.312,0,0,1-.574,0l-1.492-4.6H31.446a.792.792,0,0,1-.781-.8ZM27.543,8.219a.792.792,0,0,1,.781-.8H29.1V9.824a2.378,2.378,0,0,0,2.342,2.406h4.9l1.137,3.5a1.89,1.89,0,0,0,.988,1.129v6.745a2.373,2.373,0,0,0-1.418,1.457H35.309a10.357,10.357,0,0,0-7.767-9.335ZM25.2,34.69c-.839,0-1.733-1.225-2.349-3.209h4.7c-.616,1.984-1.51,3.209-2.349,3.209ZM27.55,20.252h-4.7c.616-1.984,1.511-3.209,2.349-3.209S26.934,18.268,27.55,20.252Zm.55-2.68a8.614,8.614,0,0,1,3.719,2.68H29.185A11.255,11.255,0,0,0,28.1,17.572Zm-.152,4.284a20.415,20.415,0,0,1,.359,3.209H22.094a20.508,20.508,0,0,1,.359-3.209Zm-6.732-1.6H18.581a8.619,8.619,0,0,1,3.719-2.68A11.32,11.32,0,0,0,21.215,20.252Zm-3.654,1.6h3.292a22.471,22.471,0,0,0-.319,3.209H16.653a8.924,8.924,0,0,1,.908-3.209Zm2.973,4.813a22.584,22.584,0,0,0,.319,3.209H17.561a8.94,8.94,0,0,1-.909-3.209Zm.682,4.813a11.287,11.287,0,0,0,1.086,2.68,8.614,8.614,0,0,1-3.719-2.68Zm1.238-1.6a20.415,20.415,0,0,1-.359-3.209h6.213a20.508,20.508,0,0,1-.359,3.209Zm7.414-3.209h3.881a8.925,8.925,0,0,1-.909,3.209H29.547A22.355,22.355,0,0,0,29.867,26.669Zm0-1.6a22.585,22.585,0,0,0-.319-3.209H32.84a8.94,8.94,0,0,1,.909,3.209ZM18.955,4.209a.792.792,0,0,1,.781.8v8.022a.792.792,0,0,1-.781.8h-.827a7.209,7.209,0,0,0-4.344-5.885,4.038,4.038,0,0,0,1.267-2.938,4.114,4.114,0,0,0-.079-.8Zm-2.4,9.626H5.746a5.52,5.52,0,0,1,5.4-4.813A5.52,5.52,0,0,1,16.551,13.834ZM11.149,2.6a2.378,2.378,0,0,1,2.342,2.406,2.343,2.343,0,1,1-4.684,0A2.378,2.378,0,0,1,11.149,2.6ZM2.561,13.032V5.011a.792.792,0,0,1,.781-.8H7.324a4.113,4.113,0,0,0-.079.8A4.038,4.038,0,0,0,8.512,7.949a7.209,7.209,0,0,0-4.344,5.885H3.342A.792.792,0,0,1,2.561,13.032Zm16.394,2.406A2.378,2.378,0,0,0,21.3,13.032V9.824h.781a.792.792,0,0,1,.781.8v5.1a10.357,10.357,0,0,0-7.767,9.335H13.347a2.373,2.373,0,0,0-1.418-1.457V15.439Zm-7.807,9.626a.8.8,0,1,1-.781.8A.792.792,0,0,1,11.149,25.065Zm5.465,24.065H5.684a2.405,2.405,0,0,1-.363-4.772l.44-.071.165-.424a4.675,4.675,0,0,1,4.443-2.754,4.682,4.682,0,0,1,4.489,2.867l.261.749.731-.262a2.262,2.262,0,0,1,.765-.146,2.407,2.407,0,0,1,0,4.813Zm6.245-4.011a.792.792,0,0,1-.781.8h-1.64a3.938,3.938,0,0,0-3.824-3.209,3.4,3.4,0,0,0-.575.049,6.081,6.081,0,0,0-4.109-3.071V28.126a2.373,2.373,0,0,0,1.418-1.457h1.745A10.357,10.357,0,0,0,22.859,36ZM28.1,34.162a11.287,11.287,0,0,0,1.086-2.68H31.82A8.621,8.621,0,0,1,28.1,34.162Zm18.419,5a10.527,10.527,0,0,0-14.533,0L30.978,38.08a11.792,11.792,0,0,1,16.549,0Z" transform="translate(-1 -1)" fill="#fff"/>
  <path id="Path_13" data-name="Path 13" d="M48.162,49a8.16,8.16,0,0,0-6.031,2.7l-.511.552,3.262,3.529.566-.613a3.628,3.628,0,0,1,5.426,0l.566.613L54.7,52.25l-.511-.552a8.154,8.154,0,0,0-6.03-2.7ZM51.4,53.5a5.128,5.128,0,0,0-6.475,0L43.8,52.279a6.516,6.516,0,0,1,8.723,0Z" transform="translate(-9.909 -10.497)" fill="#fff"/>
  <path id="Path_14" data-name="Path 14" d="M41,5h1.561V6.6H41Z" transform="translate(-9.773 -1.791)" fill="#fff"/>
  <path id="Path_15" data-name="Path 15" d="M45,5H55.929V6.6H45Z" transform="translate(-10.651 -1.791)" fill="#fff"/>
  <path id="Path_16" data-name="Path 16" d="M57,9h1.561v1.6H57Z" transform="translate(-13.283 -2.583)" fill="#fff"/>
  <path id="Path_17" data-name="Path 17" d="M49,9h1.561v1.6H49Z" transform="translate(-11.528 -2.583)" fill="#fff"/>
  <path id="Path_18" data-name="Path 18" d="M41,9h1.561v1.6H41Z" transform="translate(-9.773 -2.583)" fill="#fff"/>
  <path id="Path_19" data-name="Path 19" d="M45,9h1.561v1.6H45Z" transform="translate(-10.651 -2.583)" fill="#fff"/>
  <path id="Path_20" data-name="Path 20" d="M53,9h1.561v1.6H53Z" transform="translate(-12.405 -2.583)" fill="#fff"/>
</svg>
