<svg xmlns="http://www.w3.org/2000/svg" width="51.775" height="53.2" viewBox="0 0 51.775 53.2">
  <path id="eco" d="M53.775,31.26V25.94a2.625,2.625,0,0,0-2.589-2.66H46.768a.857.857,0,0,1-.809-.609,19.641,19.641,0,0,0-.949-2.406,5.362,5.362,0,0,0,1.836-3.626l1.176-1.209a2.7,2.7,0,0,0,0-3.754L44.355,7.908a2.54,2.54,0,0,0-3.654,0l-3.119,3.2a.855.855,0,0,1-1,.177,18.282,18.282,0,0,0-2.934-1.257.875.875,0,0,1-.587-.833V4.66A2.625,2.625,0,0,0,30.476,2H25.3A2.625,2.625,0,0,0,22.71,4.66V9.2a.876.876,0,0,1-.593.832,18.346,18.346,0,0,0-2.921,1.25.853.853,0,0,1-1-.164l-3.124-3.21a2.54,2.54,0,0,0-3.654,0L7.75,11.676a2.712,2.712,0,0,0,0,3.754l3.119,3.2a.914.914,0,0,1,.173,1.024,19.357,19.357,0,0,0-1.224,3.015.856.856,0,0,1-.81.606H4.589A2.625,2.625,0,0,0,2,25.94v5.32a2.625,2.625,0,0,0,2.589,2.66H9.007a.857.857,0,0,1,.809.609,19.426,19.426,0,0,0,1.217,3,.913.913,0,0,1-.16,1.029L7.75,41.77a2.712,2.712,0,0,0,0,3.754l3.667,3.768a2.54,2.54,0,0,0,3.654,0l3.119-3.2a.852.852,0,0,1,1-.177,18.282,18.282,0,0,0,2.934,1.257.875.875,0,0,1,.59.833v4.54A2.625,2.625,0,0,0,25.3,55.2h5.177a2.576,2.576,0,0,0,2.094-1.117,15.2,15.2,0,0,0,16.664-3.548,16.248,16.248,0,0,0,3.453-17.123,2.69,2.69,0,0,0,1.087-2.152ZM41.694,19.733H39.215a3.474,3.474,0,0,1,3.342-2.66h2.479a3.474,3.474,0,0,1-3.342,2.66ZM30.476,53.427H25.3a.875.875,0,0,1-.863-.887V48a2.626,2.626,0,0,0-1.789-2.52,16.59,16.59,0,0,1-2.671-1.145,2.554,2.554,0,0,0-3,.493l-3.124,3.21a.847.847,0,0,1-1.213,0L8.97,44.27a.9.9,0,0,1,0-1.247L12.1,39.809a2.73,2.73,0,0,0,.469-3.091,17.629,17.629,0,0,1-1.107-2.729,2.57,2.57,0,0,0-2.451-1.842H4.589a.875.875,0,0,1-.863-.887V25.94a.875.875,0,0,1,.863-.887H9.007a2.57,2.57,0,0,0,2.452-1.838,17.565,17.565,0,0,1,1.114-2.744,2.729,2.729,0,0,0-.48-3.085L8.97,14.177a.9.9,0,0,1,0-1.247l3.667-3.768a.847.847,0,0,1,1.213,0l3.128,3.212a2.549,2.549,0,0,0,3.008.481,16.65,16.65,0,0,1,2.656-1.138A2.626,2.626,0,0,0,24.436,9.2V4.66a.875.875,0,0,1,.863-.887h5.177a.875.875,0,0,1,.863.887V9.2a2.626,2.626,0,0,0,1.789,2.52A16.59,16.59,0,0,1,35.8,12.864a2.552,2.552,0,0,0,3-.493l3.124-3.21a.859.859,0,0,1,1.213,0l3.667,3.768a.9.9,0,0,1,0,1.247L45.712,15.3H42.557a5.122,5.122,0,0,0-4.115,2.1,7.768,7.768,0,0,0-7.1-4.765H29.613a.875.875,0,0,0-.863.887,7.884,7.884,0,0,0,7.766,7.98h.863v1.819A15.645,15.645,0,0,0,23.085,35.786,16.1,16.1,0,0,0,30.9,53.295a.828.828,0,0,1-.423.132ZM38.5,44.3l2.589,2.66a.868.868,0,0,0,.131.111L43.8,48.844a.852.852,0,0,0,.479.149h1.193l.841,1.73a13.712,13.712,0,0,1-1.58,1.029l-2.433-2.5a.855.855,0,0,0-.469-.247l-5.177-.887a.865.865,0,0,0-.914.478l-.863,1.773a.909.909,0,0,0-.073.57l.414,2.132a13.389,13.389,0,0,1-1.294-.366V51.653a.91.91,0,0,0-.145-.492l-1.495-2.3.664-2.051L35.4,44.3a.893.893,0,0,0,.227-.412l.863-3.547a.893.893,0,0,0-.019-.495l-.863-2.66a.884.884,0,0,0-.339-.458l-2.589-1.773a.852.852,0,0,0-.475-.149H27.025a.849.849,0,0,0-.274.046l-1.805.621c.086-.335.192-.664.305-.989l2.934-1.5,3.154-.81,3.243.833a.828.828,0,0,0,.209.027h2.5l4.228.869a.853.853,0,0,0,.887-.377l1.562-2.407,2.307-.791a.87.87,0,0,0,.5-.443c0-.008.274-.56.641-1.21a14.2,14.2,0,0,1,1.624,1.759l-1.922,1.975a.886.886,0,0,0-.162.231l-.7,1.445-2.3.787-4.315,1.773a.872.872,0,0,0-.452.427l-.863,1.773a.907.907,0,0,0-.087.4v4.433a.9.9,0,0,0,.253.627ZM24.436,39.24a14.672,14.672,0,0,1,.118-1.764l2.611-.9h4.778l2.125,1.456.69,2.128-.745,3.055L31.6,45.706a.891.891,0,0,0-.208.347l-.863,2.66a.907.907,0,0,0,.1.772L32.2,51.919v.055A14.226,14.226,0,0,1,24.436,39.24ZM45.4,28.76l-2.256.773a.866.866,0,0,0-.445.348L41.3,32.047l-3.746-.77a.841.841,0,0,0-.173-.018H34.9l-3.349-.86a.814.814,0,0,0-.418,0l-3.452.887a.849.849,0,0,0-.173.066l-1.046.532a13.782,13.782,0,0,1,8.89-6.518,13.463,13.463,0,0,1,10.711,2.189C45.786,28.029,45.55,28.473,45.4,28.76Zm-8.086-9.026h-.8a6.105,6.105,0,0,1-5.979-5.32h.8a6.105,6.105,0,0,1,5.979,5.32Zm-.28,33.63-.481-2.472L37,49.975l4.277.733,1.766,1.815a13.379,13.379,0,0,1-4.8.9C37.836,53.427,37.437,53.4,37.039,53.364Zm10.644-3.8-.9-1.853a.861.861,0,0,0-.777-.49H44.542l-2.3-1.576-2.273-2.338V39.449l.626-1.285,3.962-1.631,2.589-.887a.87.87,0,0,0,.5-.443l.8-1.644,1.6-1.645a14.377,14.377,0,0,1-2.361,17.648ZM39.105,23.325V21.507h2.589a5.032,5.032,0,0,0,1.822-.347,17.661,17.661,0,0,1,.8,2.051,2.57,2.57,0,0,0,2.453,1.842h4.418a.875.875,0,0,1,.863.887v5.32a.885.885,0,0,1-.125.434,15.513,15.513,0,0,0-12.819-8.369Z" transform="translate(-2 -2)" fill="#fff"/>
</svg>
