<svg id="headhunting" xmlns="http://www.w3.org/2000/svg" width="49.597" height="51.467" viewBox="0 0 49.597 51.467">
  <g id="Group_21" data-name="Group 21">
    <path id="Path_55" data-name="Path 55" d="M329.888,194.709H317.237a.754.754,0,0,0,0,1.508h12.651a.754.754,0,0,0,0-1.508Z" transform="translate(-285.786 -175.137)" fill="#fff"/>
    <path id="Path_56" data-name="Path 56" d="M329.888,239.922H317.237a.754.754,0,0,0,0,1.508h12.651a.754.754,0,0,0,0-1.508Z" transform="translate(-285.786 -215.805)" fill="#fff"/>
    <path id="Path_57" data-name="Path 57" d="M330.622,285.889a.744.744,0,0,0-.734-.754H317.237a.754.754,0,0,0,0,1.508h12.651A.744.744,0,0,0,330.622,285.889Z" transform="translate(-285.786 -256.473)" fill="#fff"/>
    <path id="Path_58" data-name="Path 58" d="M317.237,330.348a.754.754,0,0,0,0,1.508h6.326a.754.754,0,0,0,0-1.508Z" transform="translate(-285.786 -297.141)" fill="#fff"/>
    <path id="Path_59" data-name="Path 59" d="M51.045,8.865,43.481,1.093A3.582,3.582,0,0,0,40.914,0H16.023a3.685,3.685,0,0,0-3.63,3.73v7.718a.734.734,0,1,0,1.467,0V3.73a2.2,2.2,0,0,1,2.163-2.222H40.914a2.1,2.1,0,0,1,.466.052V8.425a2.568,2.568,0,0,0,2.529,2.6h6.68a2.281,2.281,0,0,1,.051.479V47.737a2.2,2.2,0,0,1-2.163,2.222H38.622a3.469,3.469,0,0,0-.41-4.285l-6.67-6.854a1.68,1.68,0,0,0-1.8-.406l-1.436-1.476a14.919,14.919,0,0,0-1.5-18.871,13.975,13.975,0,0,0-20.131,0,14.93,14.93,0,0,0,0,20.685A13.962,13.962,0,0,0,25.04,40.294l1.437,1.476a1.8,1.8,0,0,0,.4,1.849l6.17,6.34H16.023a2.2,2.2,0,0,1-2.163-2.222V45.321a.734.734,0,1,0-1.467,0v2.416a3.685,3.685,0,0,0,3.63,3.73H48.479a3.685,3.685,0,0,0,3.63-3.73V11.5a3.789,3.789,0,0,0-1.063-2.637ZM7.712,37.686a13.391,13.391,0,0,1,0-18.552,12.533,12.533,0,0,1,18.055,0,13.376,13.376,0,0,1,.993,17.407,13.139,13.139,0,0,1-2.108,2.166A12.521,12.521,0,0,1,7.712,37.686ZM26.2,39.343a14.643,14.643,0,0,0,1.187-1.22l1.208,1.241L27.4,40.587l-1.208-1.241,0,0ZM34.58,49.407l-6.67-6.854a.257.257,0,0,1,0-.356l.01-.01h0l2.238-2.3a.241.241,0,0,1,.347,0l6.67,6.854a1.925,1.925,0,0,1,0,2.666,1.8,1.8,0,0,1-2.595,0ZM42.848,8.425V2.574L49.6,9.516H43.91A1.078,1.078,0,0,1,42.848,8.425Z" transform="translate(-2.512 0)" fill="#fff"/>
    <path id="Path_60" data-name="Path 60" d="M166.589,48.663H152.033a1.6,1.6,0,0,0-1.578,1.621v2.889a1.6,1.6,0,0,0,1.578,1.621h14.556a1.6,1.6,0,0,0,1.578-1.621V50.284A1.6,1.6,0,0,0,166.589,48.663Zm.111,4.511a.112.112,0,0,1-.111.114H152.033a.112.112,0,0,1-.111-.114V50.284a.112.112,0,0,1,.111-.114h14.556a.112.112,0,0,1,.111.114v2.889Z" transform="translate(-135.982 -43.771)" fill="#fff"/>
    <path id="Path_61" data-name="Path 61" d="M52.783,186.913a11.861,11.861,0,0,0,0-16.433,11.108,11.108,0,0,0-15.993,0,11.647,11.647,0,0,0-3.182,6.45.751.751,0,0,0,.614.859.736.736,0,0,0,.836-.631,10.135,10.135,0,0,1,2.769-5.612,9.667,9.667,0,0,1,13.918,0,10.329,10.329,0,0,1,.447,13.809,3.212,3.212,0,0,0-1.587-1.547,13.969,13.969,0,0,0-3.289-.768l0-.952a4.442,4.442,0,0,0,1.7-2.867,1.3,1.3,0,0,0,.423-.293,1.344,1.344,0,0,0,.377-.949c-.007-1-.006-2.655-.006-3.62a1.837,1.837,0,0,0-1.494-1.821,1.815,1.815,0,0,0-1.764-1.49H43.011a3.361,3.361,0,0,0-3.311,3.4v3.543a1.333,1.333,0,0,0,.791,1.225,4.457,4.457,0,0,0,1.627,2.806l0,1.039a13.975,13.975,0,0,0-3.283.8,3.133,3.133,0,0,0-1.49,1.458,10.151,10.151,0,0,1-2.258-4.879.736.736,0,0,0-.849-.613.752.752,0,0,0-.6.872,11.658,11.658,0,0,0,3.144,6.215A11.108,11.108,0,0,0,52.783,186.913Zm-9.772-14.356h3.542a.336.336,0,0,1,.331.34,1.11,1.11,0,0,0,1.093,1.123h.036a.336.336,0,0,1,.331.34v.4l-.887-.085a4,4,0,0,0-2.5.6,2.544,2.544,0,0,1-1.356.393H41.167v-1.217a1.872,1.872,0,0,1,1.844-1.895Zm-1.844,5.276v-.657H43.6a3.981,3.981,0,0,0,2.122-.615,2.556,2.556,0,0,1,1.6-.381l1.024.1c0,.464,0,1.077,0,1.551a.927.927,0,0,0-.751.866,2.846,2.846,0,0,1-5.688,0A.935.935,0,0,0,41.167,177.833Zm3.588,5.119a4.2,4.2,0,0,0,1.092-.145l0,.42a1.321,1.321,0,0,0,.121.548,2.2,2.2,0,0,1-1.25.394h-.007a2.2,2.2,0,0,1-1.241-.383,1.321,1.321,0,0,0,.117-.549l0-.451A4.193,4.193,0,0,0,44.756,182.952ZM38.5,186.475a1.7,1.7,0,0,1,.944-1.24,11.444,11.444,0,0,1,2.671-.647,3.648,3.648,0,0,0,2.6,1.09h.011a3.649,3.649,0,0,0,2.612-1.112,11.436,11.436,0,0,1,2.676.623,1.713,1.713,0,0,1,1.013,1.327A9.655,9.655,0,0,1,38.5,186.475Z" transform="translate(-30.558 -150.287)" fill="#fff"/>
  </g>
</svg>
