<svg xmlns="http://www.w3.org/2000/svg" xmlns:xlink="http://www.w3.org/1999/xlink" width="86" height="86" viewBox="0 0 86 86">
  <defs>
    <clipPath id="clip-path">
      <rect width="86" height="86" fill="none"/>
    </clipPath>
  </defs>
  <g id="Repeat_Grid_1" data-name="Repeat Grid 1" clip-path="url(#clip-path)">
    <g transform="translate(-1214 -1836)">
      <g id="Ellipse_2" data-name="Ellipse 2" transform="translate(1214 1836)" fill="none" stroke="#4dc0ef" stroke-width="1">
        <circle cx="6" cy="6" r="6" stroke="none"/>
        <circle cx="6" cy="6" r="5.5" fill="none"/>
      </g>
    </g>
    <g transform="translate(-1192 -1836)">
      <g id="Ellipse_2-2" data-name="Ellipse 2" transform="translate(1214 1836)" fill="none" stroke="#4dc0ef" stroke-width="1">
        <circle cx="6" cy="6" r="6" stroke="none"/>
        <circle cx="6" cy="6" r="5.5" fill="none"/>
      </g>
    </g>
    <g transform="translate(-1170 -1836)">
      <g id="Ellipse_2-3" data-name="Ellipse 2" transform="translate(1214 1836)" fill="none" stroke="#4dc0ef" stroke-width="1">
        <circle cx="6" cy="6" r="6" stroke="none"/>
        <circle cx="6" cy="6" r="5.5" fill="none"/>
      </g>
    </g>
    <g transform="translate(-1148 -1836)">
      <g id="Ellipse_2-4" data-name="Ellipse 2" transform="translate(1214 1836)" fill="none" stroke="#4dc0ef" stroke-width="1">
        <circle cx="6" cy="6" r="6" stroke="none"/>
        <circle cx="6" cy="6" r="5.5" fill="none"/>
      </g>
    </g>
    <g transform="translate(-1214 -1815)">
      <g id="Ellipse_2-5" data-name="Ellipse 2" transform="translate(1214 1836)" fill="none" stroke="#4dc0ef" stroke-width="1">
        <circle cx="6" cy="6" r="6" stroke="none"/>
        <circle cx="6" cy="6" r="5.5" fill="none"/>
      </g>
    </g>
    <g transform="translate(-1192 -1815)">
      <g id="Ellipse_2-6" data-name="Ellipse 2" transform="translate(1214 1836)" fill="none" stroke="#4dc0ef" stroke-width="1">
        <circle cx="6" cy="6" r="6" stroke="none"/>
        <circle cx="6" cy="6" r="5.5" fill="none"/>
      </g>
    </g>
    <g transform="translate(-1170 -1815)">
      <g id="Ellipse_2-7" data-name="Ellipse 2" transform="translate(1214 1836)" fill="none" stroke="#4dc0ef" stroke-width="1">
        <circle cx="6" cy="6" r="6" stroke="none"/>
        <circle cx="6" cy="6" r="5.5" fill="none"/>
      </g>
    </g>
    <g transform="translate(-1148 -1815)">
      <g id="Ellipse_2-8" data-name="Ellipse 2" transform="translate(1214 1836)" fill="none" stroke="#4dc0ef" stroke-width="1">
        <circle cx="6" cy="6" r="6" stroke="none"/>
        <circle cx="6" cy="6" r="5.5" fill="none"/>
      </g>
    </g>
    <g transform="translate(-1214 -1794)">
      <g id="Ellipse_2-9" data-name="Ellipse 2" transform="translate(1214 1836)" fill="none" stroke="#4dc0ef" stroke-width="1">
        <circle cx="6" cy="6" r="6" stroke="none"/>
        <circle cx="6" cy="6" r="5.5" fill="none"/>
      </g>
    </g>
    <g transform="translate(-1192 -1794)">
      <g id="Ellipse_2-10" data-name="Ellipse 2" transform="translate(1214 1836)" fill="none" stroke="#4dc0ef" stroke-width="1">
        <circle cx="6" cy="6" r="6" stroke="none"/>
        <circle cx="6" cy="6" r="5.5" fill="none"/>
      </g>
    </g>
    <g transform="translate(-1170 -1794)">
      <g id="Ellipse_2-11" data-name="Ellipse 2" transform="translate(1214 1836)" fill="none" stroke="#4dc0ef" stroke-width="1">
        <circle cx="6" cy="6" r="6" stroke="none"/>
        <circle cx="6" cy="6" r="5.5" fill="none"/>
      </g>
    </g>
    <g transform="translate(-1148 -1794)">
      <g id="Ellipse_2-12" data-name="Ellipse 2" transform="translate(1214 1836)" fill="none" stroke="#4dc0ef" stroke-width="1">
        <circle cx="6" cy="6" r="6" stroke="none"/>
        <circle cx="6" cy="6" r="5.5" fill="none"/>
      </g>
    </g>
    <g transform="translate(-1214 -1773)">
      <g id="Ellipse_2-13" data-name="Ellipse 2" transform="translate(1214 1836)" fill="none" stroke="#4dc0ef" stroke-width="1">
        <circle cx="6" cy="6" r="6" stroke="none"/>
        <circle cx="6" cy="6" r="5.5" fill="none"/>
      </g>
    </g>
    <g transform="translate(-1192 -1773)">
      <g id="Ellipse_2-14" data-name="Ellipse 2" transform="translate(1214 1836)" fill="none" stroke="#4dc0ef" stroke-width="1">
        <circle cx="6" cy="6" r="6" stroke="none"/>
        <circle cx="6" cy="6" r="5.5" fill="none"/>
      </g>
    </g>
    <g transform="translate(-1170 -1773)">
      <g id="Ellipse_2-15" data-name="Ellipse 2" transform="translate(1214 1836)" fill="none" stroke="#4dc0ef" stroke-width="1">
        <circle cx="6" cy="6" r="6" stroke="none"/>
        <circle cx="6" cy="6" r="5.5" fill="none"/>
      </g>
    </g>
    <g transform="translate(-1148 -1773)">
      <g id="Ellipse_2-16" data-name="Ellipse 2" transform="translate(1214 1836)" fill="none" stroke="#4dc0ef" stroke-width="1">
        <circle cx="6" cy="6" r="6" stroke="none"/>
        <circle cx="6" cy="6" r="5.5" fill="none"/>
      </g>
    </g>
  </g>
</svg>
