<svg id="specialist" xmlns="http://www.w3.org/2000/svg" width="35.398" height="55.425" viewBox="0 0 35.398 55.425">
  <path id="Path_21" data-name="Path 21" d="M.843,392.669A.854.854,0,0,1,0,391.8a7.7,7.7,0,0,1,7.587-7.8.866.866,0,0,1,0,1.732,5.991,5.991,0,0,0-5.9,6.064.854.854,0,0,1-.843.866Zm0,0" transform="translate(0 -342.438)" fill="#fff"/>
  <path id="Path_22" data-name="Path 22" d="M263.585,392.676a.854.854,0,0,1-.843-.866,5.99,5.99,0,0,0-5.9-6.062.866.866,0,0,1,0-1.732,7.7,7.7,0,0,1,7.585,7.794A.854.854,0,0,1,263.585,392.676Zm0,0" transform="translate(-229.03 -342.445)" fill="#fff"/>
  <path id="Path_23" data-name="Path 23" d="M64.858,385.733a.866.866,0,0,1,0-1.732h2.528a.866.866,0,0,1,0,1.732Zm0,0" transform="translate(-57.271 -342.431)" fill="#fff"/>
  <path id="Path_24" data-name="Path 24" d="M.844,454.083A.854.854,0,0,1,0,453.217v-4.328a.854.854,0,0,1,.843-.866.855.855,0,0,1,.843.866v4.328a.854.854,0,0,1-.843.866Zm0,0" transform="translate(0 -399.524)" fill="#fff"/>
  <path id="Path_25" data-name="Path 25" d="M1.693,490.6a1.711,1.711,0,0,1-1.686-1.732A.854.854,0,0,1,.851,488a.854.854,0,0,1,.843.866v0a.865.865,0,0,1,0,1.73Zm0,0" transform="translate(-0.007 -435.173)" fill="#fff"/>
  <path id="Path_26" data-name="Path 26" d="M312.843,490.6a.866.866,0,0,1,0-1.732h0a.842.842,0,1,1,1.684,0A1.711,1.711,0,0,1,312.843,490.6Zm0,0" transform="translate(-279.13 -435.173)" fill="#fff"/>
  <path id="Path_27" data-name="Path 27" d="M320.843,454.076a.854.854,0,0,1-.843-.866v-4.328a.843.843,0,1,1,1.686,0v4.328A.854.854,0,0,1,320.843,454.076Zm0,0" transform="translate(-286.287 -399.517)" fill="#fff"/>
  <path id="Path_28" data-name="Path 28" d="M40.877,497.732H8.851a.866.866,0,0,1,0-1.732H40.877a.866.866,0,0,1,0,1.732Zm0,0" transform="translate(-7.164 -442.307)" fill="#fff"/>
  <path id="Path_29" data-name="Path 29" d="M104.843,355.471a.828.828,0,0,1-.376-.091.877.877,0,0,1-.377-1.162l.843-1.732a.835.835,0,0,1,1.131-.387.878.878,0,0,1,.377,1.162l-.843,1.732a.842.842,0,0,1-.755.478Zm0,0" transform="translate(-93.044 -313.902)" fill="#fff"/>
  <path id="Path_30" data-name="Path 30" d="M209.653,355.46a.842.842,0,0,1-.754-.478l-.846-1.732a.877.877,0,0,1,.375-1.162.833.833,0,0,1,1.131.385l.846,1.732a.877.877,0,0,1-.375,1.162A.814.814,0,0,1,209.653,355.46Zm0,0" transform="translate(-186.054 -313.891)" fill="#fff"/>
  <path id="Path_31" data-name="Path 31" d="M119.341,380.325a.837.837,0,0,1-.73-.432.879.879,0,0,1,.307-1.183l4.373-2.6a.829.829,0,0,1,1.151.315.879.879,0,0,1-.307,1.183l-4.373,2.6a.819.819,0,0,1-.421.117Zm0,0" transform="translate(-106.013 -335.291)" fill="#fff"/>
  <path id="Path_32" data-name="Path 32" d="M165.266,380.329a.817.817,0,0,1-.417-.114l-4.424-2.6a.879.879,0,0,1-.314-1.181.83.83,0,0,1,1.15-.322l4.424,2.6a.88.88,0,0,1,.314,1.181A.839.839,0,0,1,165.266,380.329Zm0,0" transform="translate(-143.144 -335.295)" fill="#fff"/>
  <path id="Path_33" data-name="Path 33" d="M72.84,373.2a.83.83,0,0,1-.6-.254.882.882,0,0,1,0-1.225l3.371-3.466a.826.826,0,0,1,1.192,0,.882.882,0,0,1,0,1.225l-3.371,3.466A.83.83,0,0,1,72.84,373.2Zm0,0" transform="translate(-64.412 -328.161)" fill="#fff"/>
  <path id="Path_34" data-name="Path 34" d="M76.211,405.207a.83.83,0,0,1-.6-.254l-3.371-3.462a.882.882,0,0,1,0-1.225.826.826,0,0,1,1.192,0l3.371,3.462a.882.882,0,0,1,0,1.225A.83.83,0,0,1,76.211,405.207Zm0,0" transform="translate(-64.412 -356.71)" fill="#fff"/>
  <path id="Path_35" data-name="Path 35" d="M88.84,435.461a.83.83,0,0,1-.6-.254.882.882,0,0,1,0-1.225l1.686-1.732a.826.826,0,0,1,1.192,0,.882.882,0,0,1,0,1.225l-1.686,1.732A.83.83,0,0,1,88.84,435.461Zm0,0" transform="translate(-78.726 -385.232)" fill="#fff"/>
  <path id="Path_36" data-name="Path 36" d="M93.9,454.926a.83.83,0,0,1-.6-.254l-5.057-5.2a.882.882,0,0,1,0-1.225.826.826,0,0,1,1.192,0l5.057,5.2a.882.882,0,0,1,0,1.225A.83.83,0,0,1,93.9,454.926Zm0,0" transform="translate(-78.726 -399.5)" fill="#fff"/>
  <path id="Path_37" data-name="Path 37" d="M110.74,383.586a.842.842,0,0,1-.773-.52l-5.9-13.856a.873.873,0,0,1,.435-1.14.833.833,0,0,1,1.109.447l5.9,13.856a.873.873,0,0,1-.435,1.14.8.8,0,0,1-.336.073Zm0,0" transform="translate(-93.04 -328.161)" fill="#fff"/>
  <path id="Path_38" data-name="Path 38" d="M220.211,373.2a.83.83,0,0,1-.6-.254l-3.371-3.466a.882.882,0,0,1,0-1.225.826.826,0,0,1,1.192,0l3.371,3.466a.882.882,0,0,1,0,1.225A.83.83,0,0,1,220.211,373.2Zm0,0" transform="translate(-193.241 -328.161)" fill="#fff"/>
  <path id="Path_39" data-name="Path 39" d="M216.84,405.207a.83.83,0,0,1-.6-.254.882.882,0,0,1,0-1.225l3.371-3.462a.826.826,0,0,1,1.192,0,.882.882,0,0,1,0,1.225l-3.371,3.462A.83.83,0,0,1,216.84,405.207Zm0,0" transform="translate(-193.241 -356.71)" fill="#fff"/>
  <path id="Path_40" data-name="Path 40" d="M218.526,435.461a.83.83,0,0,1-.6-.254l-1.686-1.732a.882.882,0,0,1,0-1.225.826.826,0,0,1,1.192,0l1.686,1.732a.882.882,0,0,1,0,1.225A.83.83,0,0,1,218.526,435.461Zm0,0" transform="translate(-193.241 -385.232)" fill="#fff"/>
  <path id="Path_41" data-name="Path 41" d="M184.84,454.926a.83.83,0,0,1-.6-.254.882.882,0,0,1,0-1.225l5.057-5.2a.826.826,0,0,1,1.192,0,.882.882,0,0,1,0,1.225l-5.057,5.2A.83.83,0,0,1,184.84,454.926Zm0,0" transform="translate(-164.613 -399.5)" fill="#fff"/>
  <path id="Path_42" data-name="Path 42" d="M160.841,383.576a.8.8,0,0,1-.336-.073.874.874,0,0,1-.435-1.14l5.9-13.856a.83.83,0,0,1,1.109-.447.874.874,0,0,1,.435,1.14l-5.9,13.856a.842.842,0,0,1-.773.52Zm0,0" transform="translate(-143.143 -328.151)" fill="#fff"/>
  <path id="Path_43" data-name="Path 43" d="M235.371,385.748h-2.528a.866.866,0,0,1,0-1.732h2.528a.866.866,0,0,1,0,1.732Zm0,0" transform="translate(-207.558 -342.445)" fill="#fff"/>
  <path id="Path_44" data-name="Path 44" d="M139.844,414.069a.834.834,0,0,1-.26-.042.873.873,0,0,1-.542-1.091l1.369-4.328a.84.84,0,0,1,1.062-.557.873.873,0,0,1,.542,1.091l-1.369,4.328A.847.847,0,0,1,139.844,414.069Zm0,0" transform="translate(-124.356 -363.84)" fill="#fff"/>
  <path id="Path_45" data-name="Path 45" d="M170.208,414.061a.847.847,0,0,1-.8-.6l-1.369-4.332a.872.872,0,0,1,.542-1.091.839.839,0,0,1,1.062.557l1.369,4.332a.871.871,0,0,1-.542,1.091A.858.858,0,0,1,170.208,414.061Zm0,0" transform="translate(-150.298 -363.83)" fill="#fff"/>
  <path id="Path_46" data-name="Path 46" d="M154.528,409.748h-1.686a.866.866,0,0,1,0-1.732h1.686a.866.866,0,0,1,0,1.732Zm0,0" transform="translate(-135.986 -363.847)" fill="#fff"/>
  <path id="Path_47" data-name="Path 47" d="M168.842,393.437a.825.825,0,0,1-.555-.214.882.882,0,0,1-.08-1.222l1.686-1.98a.826.826,0,0,1,1.189-.082.883.883,0,0,1,.08,1.222l-1.686,1.98A.829.829,0,0,1,168.842,393.437Zm0,0" transform="translate(-150.3 -347.536)" fill="#fff"/>
  <path id="Path_48" data-name="Path 48" d="M138.527,393.586a.832.832,0,0,1-.632-.293l-1.686-1.962a.884.884,0,0,1,.074-1.223.829.829,0,0,1,1.19.077l1.686,1.962a.884.884,0,0,1-.074,1.223A.827.827,0,0,1,138.527,393.586Zm0,0" transform="translate(-121.67 -347.685)" fill="#fff"/>
  <path id="Path_49" data-name="Path 49" d="M122.954,353.732H112.843a.866.866,0,0,1,0-1.732h10.111a.866.866,0,0,1,0,1.732Zm0,0" transform="translate(-100.201 -313.895)" fill="#fff"/>
  <path id="Path_50" data-name="Path 50" d="M136.843,323.59a.854.854,0,0,1-.843-.866v-3.659a.843.843,0,1,1,1.686,0v3.659A.854.854,0,0,1,136.843,323.59Zm0,0" transform="translate(-121.672 -283.753)" fill="#fff"/>
  <path id="Path_51" data-name="Path 51" d="M184.812,323.6a.854.854,0,0,1-.843-.866v-3.658a.843.843,0,1,1,1.686,0v3.658A.854.854,0,0,1,184.812,323.6Zm0,0" transform="translate(-164.587 -283.76)" fill="#fff"/>
  <path id="Path_52" data-name="Path 52" d="M17.7,36.373A17.968,17.968,0,0,1,0,18.186,17.968,17.968,0,0,1,17.7,0,17.968,17.968,0,0,1,35.4,18.186,17.968,17.968,0,0,1,17.7,36.373Zm0-34.641A16.256,16.256,0,0,0,1.686,18.186,16.256,16.256,0,0,0,17.7,34.641,16.256,16.256,0,0,0,33.713,18.186,16.256,16.256,0,0,0,17.7,1.732Zm0,0" transform="translate(0)" fill="#fff"/>
  <path id="Path_53" data-name="Path 53" d="M39.171,55.177a15.594,15.594,0,0,1,0-31.177,15.594,15.594,0,0,1,0,31.177Zm0-29.445a13.861,13.861,0,0,0,0,27.713,13.861,13.861,0,0,0,0-27.713Zm0,0" transform="translate(-21.472 -21.402)" fill="#fff"/>
  <path id="Path_54" data-name="Path 54" d="M171.8,68.99a.854.854,0,0,1-.843-.866,10.267,10.267,0,0,0-10.114-10.392.866.866,0,0,1,0-1.732,11.978,11.978,0,0,1,11.8,12.124A.854.854,0,0,1,171.8,68.99Zm0,0" transform="translate(-143.144 -49.938)" fill="#fff"/>
</svg>
