<svg xmlns="http://www.w3.org/2000/svg" width="46.2" height="46.2" viewBox="0 0 46.2 46.2">
  <path id="worldwide" d="M43.505,40.81a2.668,2.668,0,0,0-1.623.558l-8.906-9.041a13.663,13.663,0,0,0,3.4-8.457h3.7a2.693,2.693,0,1,0,.231-1.54H36.357a13.668,13.668,0,0,0-3.507-8.245l8.95-9.32a2.668,2.668,0,0,0,1.705.626A2.695,2.695,0,1,0,40.81,2.7a2.654,2.654,0,0,0,.12.752L31.757,13A13.669,13.669,0,0,0,23.87,9.595V5.12a2.7,2.7,0,1,0-1.54.231v4.2a13.669,13.669,0,0,0-8.569,3.275L5.049,3.982A2.66,2.66,0,0,0,5.39,2.7,2.695,2.695,0,1,0,2.7,5.39a2.655,2.655,0,0,0,1.258-.326l8.7,8.828a13.679,13.679,0,0,0-3.682,8.439H5.12a2.7,2.7,0,1,0,.231,1.54h3.6a13.681,13.681,0,0,0,3.808,8.907.09.09,0,0,0,0,.011L4.429,41.459A2.671,2.671,0,0,0,2.7,40.81a2.7,2.7,0,1,0,2.695,2.7,2.66,2.66,0,0,0-.108-.712l8.6-8.957A13.669,13.669,0,0,0,22.331,37v3.848a2.694,2.694,0,1,0,1.54.232V36.957A13.668,13.668,0,0,0,31.9,33.425l9.073,9.209a2.654,2.654,0,0,0-.158.872,2.7,2.7,0,1,0,2.7-2.7ZM23.87,30a12.161,12.161,0,0,1,2.777.618c-.725,2.2-1.734,3.743-2.777,4.367Zm0-1.546V23.87h3.837a25.074,25.074,0,0,1-.637,5.27,13.674,13.674,0,0,0-3.2-.682Zm0-6.128V18.092a13.686,13.686,0,0,0,3.2-.681A24.838,24.838,0,0,1,27.7,22.33Zm0-5.783V11.562c1.043.623,2.053,2.162,2.778,4.367a12.184,12.184,0,0,1-2.778.618Zm2.271-4.962a12.179,12.179,0,0,1,4.246,2.253,12.169,12.169,0,0,1-2.31,1.5,12.241,12.241,0,0,0-1.935-3.755Zm-3.811-.251v5.259a12.212,12.212,0,0,1-3.312-.541c.84-2.622,2.081-4.332,3.312-4.717ZM17.577,15.49a12.117,12.117,0,0,1-2.646-1.647,12.169,12.169,0,0,1,4.731-2.381,12.179,12.179,0,0,0-2.085,4.028Zm4.753,2.643v4.2H18.007a24.974,24.974,0,0,1,.6-4.791,13.764,13.764,0,0,0,3.721.594Zm0,5.737v4.548a13.768,13.768,0,0,0-3.722.591A25.191,25.191,0,0,1,18,23.87Zm0,6.088v5.259c-1.231-.386-2.473-2.1-3.312-4.72a12.208,12.208,0,0,1,3.312-.539ZM19.662,35.09a12.167,12.167,0,0,1-4.735-2.385,12.135,12.135,0,0,1,2.649-1.645,12.185,12.185,0,0,0,2.085,4.03Zm8.415-3.88a12.179,12.179,0,0,1,2.309,1.5,12.179,12.179,0,0,1-4.245,2.252,12.235,12.235,0,0,0,1.936-3.756Zm3.436.441a13.721,13.721,0,0,0-3-1.931,26.532,26.532,0,0,0,.731-5.85h5.589a12.143,12.143,0,0,1-3.322,7.781ZM42.735,22.33a1.155,1.155,0,1,1-1.155,1.155A1.156,1.156,0,0,1,42.735,22.33Zm-13.5,0a26.275,26.275,0,0,0-.723-5.5,13.691,13.691,0,0,0,3-1.93,12.147,12.147,0,0,1,3.3,7.43ZM43.505,1.541A1.155,1.155,0,1,1,42.35,2.7,1.156,1.156,0,0,1,43.505,1.541ZM21.56,2.7a1.155,1.155,0,1,1,1.155,1.155A1.156,1.156,0,0,1,21.56,2.7ZM1.54,2.7A1.155,1.155,0,1,1,2.7,3.851,1.156,1.156,0,0,1,1.54,2.7ZM13.809,14.9a13.663,13.663,0,0,0,3.346,2.088,26.379,26.379,0,0,0-.687,5.339h-5.96a12.144,12.144,0,0,1,3.3-7.427ZM2.7,24.641A1.155,1.155,0,1,1,3.85,23.486,1.156,1.156,0,0,1,2.7,24.641Zm13.765-.77a26.635,26.635,0,0,0,.695,5.687,13.647,13.647,0,0,0-3.348,2.088A12.141,12.141,0,0,1,10.49,23.87ZM2.7,44.66a1.155,1.155,0,1,1,.987-1.746h0a1.14,1.14,0,0,1,.167.59A1.156,1.156,0,0,1,2.7,44.66Zm20.02,0a1.155,1.155,0,1,1,1.155-1.155A1.156,1.156,0,0,1,22.715,44.66Zm20.79,0a1.155,1.155,0,1,1,1.155-1.155A1.156,1.156,0,0,1,43.505,44.66Zm0,0" transform="translate(0 -0.001)" fill="#fff"/>
</svg>
